<svg width="341" height="29" viewBox="0 0 341 29" fill="none" xmlns="http://www.w3.org/2000/svg">
<path d="M1.306 27.895C0.634 27.601 0.431 27.111 0.697 26.425L11.113 1.792C11.337 1.218 11.75 0.930999 12.352 0.930999H12.478C13.052 0.944998 13.458 1.232 13.696 1.792L24.112 26.425C24.392 27.111 24.196 27.601 23.524 27.895C22.838 28.175 22.362 27.979 22.096 27.307L19.303 20.692H5.548L2.755 27.307C2.475 27.979 1.992 28.175 1.306 27.895ZM6.451 18.487H18.379L12.415 4.417L6.451 18.487ZM30.3388 28C29.5968 28 29.2258 27.629 29.2258 26.887V2.044C29.2258 1.302 29.5968 0.930999 30.3388 0.930999C31.0668 0.930999 31.4308 1.302 31.4308 2.044V25.795H44.1988C44.9408 25.795 45.3118 26.159 45.3118 26.887C45.3118 27.629 44.9408 28 44.1988 28H30.3388ZM51.3388 28C50.5968 28 50.2258 27.629 50.2258 26.887V2.044C50.2258 1.302 50.5968 0.930999 51.3388 0.930999C52.0668 0.930999 52.4308 1.302 52.4308 2.044V25.795H65.1988C65.9408 25.795 66.3118 26.159 66.3118 26.887C66.3118 27.629 65.9408 28 65.1988 28H51.3388ZM82.8798 28C82.5298 28 82.2568 27.902 82.0608 27.706C81.8648 27.51 81.7668 27.237 81.7668 26.887V2.023C81.7668 1.673 81.8648 1.4 82.0608 1.204C82.2568 1.008 82.5298 0.909998 82.8798 0.909998C83.2158 0.909998 83.4818 1.008 83.6778 1.204C83.8738 1.4 83.9718 1.673 83.9718 2.023V26.887C83.9718 27.237 83.8738 27.51 83.6778 27.706C83.4818 27.902 83.2158 28 82.8798 28ZM92.9287 28C92.1867 28 91.8157 27.629 91.8157 26.887V2.044C91.8157 1.302 92.1867 0.930999 92.9287 0.930999C93.3207 0.930999 93.6987 1.148 94.0627 1.582L111.85 24.43H111.346V2.044C111.346 1.302 111.717 0.930999 112.459 0.930999C113.187 0.930999 113.551 1.302 113.551 2.044V26.887C113.551 27.629 113.187 28 112.459 28C112.053 28 111.675 27.783 111.325 27.349L93.5167 4.501H94.0207V26.887C94.0207 27.629 93.6567 28 92.9287 28ZM140.119 28C137.081 28 134.862 27.3 133.462 25.9C132.062 24.5 131.362 22.281 131.362 19.243V9.667C131.362 6.601 132.062 4.375 133.462 2.989C134.862 1.589 137.067 0.903 140.077 0.930999H145.159C148.197 0.930999 150.409 1.631 151.795 3.031C153.195 4.431 153.895 6.65 153.895 9.688V19.243C153.895 22.281 153.195 24.5 151.795 25.9C150.409 27.3 148.197 28 145.159 28H140.119ZM140.119 25.795H145.159C146.769 25.795 148.05 25.585 149.002 25.165C149.954 24.745 150.64 24.059 151.06 23.107C151.48 22.155 151.69 20.867 151.69 19.243V9.688C151.69 8.078 151.48 6.797 151.06 5.845C150.64 4.893 149.954 4.207 149.002 3.787C148.05 3.353 146.769 3.136 145.159 3.136H140.077C138.467 3.122 137.186 3.325 136.234 3.745C135.296 4.151 134.617 4.837 134.197 5.803C133.777 6.755 133.567 8.043 133.567 9.667V19.243C133.567 20.867 133.777 22.155 134.197 23.107C134.617 24.059 135.303 24.745 136.255 25.165C137.207 25.585 138.495 25.795 140.119 25.795ZM162.286 28C161.544 28 161.173 27.629 161.173 26.887V2.044C161.173 1.302 161.544 0.930999 162.286 0.930999C162.678 0.930999 163.056 1.148 163.42 1.582L181.207 24.43H180.703V2.044C180.703 1.302 181.074 0.930999 181.816 0.930999C182.544 0.930999 182.908 1.302 182.908 2.044V26.887C182.908 27.629 182.544 28 181.816 28C181.41 28 181.032 27.783 180.682 27.349L162.874 4.501H163.378V26.887C163.378 27.629 163.014 28 162.286 28ZM191.858 28C191.116 28 190.745 27.629 190.745 26.887V2.044C190.745 1.302 191.116 0.930999 191.858 0.930999H207.587C208.329 0.930999 208.7 1.302 208.7 2.044C208.7 2.772 208.329 3.136 207.587 3.136H192.95V13.195H202.631C203.373 13.195 203.744 13.559 203.744 14.287C203.744 15.029 203.373 15.4 202.631 15.4H192.95V25.795H207.587C208.329 25.795 208.7 26.159 208.7 26.887C208.7 27.629 208.329 28 207.587 28H191.858ZM225.942 28C225.2 28 224.829 27.629 224.829 26.887V2.044C224.829 1.302 225.2 0.930999 225.942 0.930999H235.77C238.164 0.930999 239.97 1.547 241.188 2.779C242.42 4.011 243.036 5.824 243.036 8.218V9.478C243.036 11.858 242.42 13.664 241.188 14.896C239.97 16.128 238.164 16.744 235.77 16.744H227.034V26.887C227.034 27.629 226.67 28 225.942 28ZM227.034 14.539H235.77C237.534 14.539 238.815 14.14 239.613 13.342C240.425 12.53 240.831 11.242 240.831 9.478V8.218C240.831 6.44 240.425 5.152 239.613 4.354C238.815 3.542 237.534 3.136 235.77 3.136H227.034V14.539ZM249.485 28C248.743 28 248.372 27.629 248.372 26.887V2.044C248.372 1.302 248.743 0.930999 249.485 0.930999C250.213 0.930999 250.577 1.302 250.577 2.044V25.795H263.345C264.087 25.795 264.458 26.159 264.458 26.887C264.458 27.629 264.087 28 263.345 28H249.485ZM267.251 27.895C266.579 27.601 266.376 27.111 266.642 26.425L277.058 1.792C277.282 1.218 277.695 0.930999 278.297 0.930999H278.423C278.997 0.944998 279.403 1.232 279.641 1.792L290.057 26.425C290.337 27.111 290.141 27.601 289.469 27.895C288.783 28.175 288.307 27.979 288.041 27.307L285.248 20.692H271.493L268.7 27.307C268.42 27.979 267.937 28.175 267.251 27.895ZM272.396 18.487H284.324L278.36 4.417L272.396 18.487ZM302.951 28C299.913 28 297.694 27.3 296.294 25.9C294.894 24.5 294.194 22.281 294.194 19.243V9.688C294.194 6.622 294.887 4.396 296.273 3.01C297.673 1.624 299.885 0.930999 302.909 0.930999H307.991C310.567 0.930999 312.485 1.47 313.745 2.548C315.005 3.612 315.698 5.327 315.824 7.693C315.866 8.071 315.789 8.358 315.593 8.554C315.411 8.75 315.138 8.848 314.774 8.848C314.074 8.848 313.689 8.477 313.619 7.735C313.521 5.999 313.045 4.802 312.191 4.144C311.337 3.472 309.937 3.136 307.991 3.136H302.909C301.299 3.136 300.018 3.346 299.066 3.766C298.114 4.172 297.428 4.858 297.008 5.824C296.602 6.776 296.399 8.064 296.399 9.688V19.243C296.399 20.867 296.609 22.155 297.029 23.107C297.449 24.059 298.135 24.745 299.087 25.165C300.039 25.585 301.327 25.795 302.951 25.795H307.991C309.937 25.795 311.337 25.466 312.191 24.808C313.045 24.136 313.521 22.932 313.619 21.196C313.689 20.454 314.074 20.083 314.774 20.083C315.138 20.083 315.411 20.188 315.593 20.398C315.789 20.594 315.866 20.874 315.824 21.238C315.698 23.604 315.005 25.326 313.745 26.404C312.485 27.468 310.567 28 307.991 28H302.951ZM323.806 28C323.064 28 322.693 27.629 322.693 26.887V2.044C322.693 1.302 323.064 0.930999 323.806 0.930999H339.535C340.277 0.930999 340.648 1.302 340.648 2.044C340.648 2.772 340.277 3.136 339.535 3.136H324.898V13.195H334.579C335.321 13.195 335.692 13.559 335.692 14.287C335.692 15.029 335.321 15.4 334.579 15.4H324.898V25.795H339.535C340.277 25.795 340.648 26.159 340.648 26.887C340.648 27.629 340.277 28 339.535 28H323.806Z" fill="#FEFEFE"/>
</svg>
