<svg width="281" height="54" viewBox="0 0 281 54" fill="none" xmlns="http://www.w3.org/2000/svg">
<path d="M0 27C0 12.0883 12.0883 0 27 0H254C268.912 0 281 12.0883 281 27C281 41.9117 268.912 54 254 54H27C12.0883 54 0 41.9117 0 27Z" fill="white"/>
<path d="M100.78 38C100.192 38 99.8976 37.706 99.8976 37.118V20.528C99.8976 19.94 100.192 19.646 100.78 19.646C101.368 19.646 101.662 19.94 101.662 20.528V36.236H109.922C110.51 36.236 110.804 36.53 110.804 37.118C110.804 37.706 110.51 38 109.922 38H100.78ZM119.236 38C117.173 38 115.661 37.5193 114.7 36.558C113.738 35.5967 113.258 34.0847 113.258 32.022V25.61C113.258 23.5287 113.738 22.012 114.7 21.06C115.67 20.0987 117.178 19.6273 119.222 19.646H122.596C124.668 19.646 126.18 20.1267 127.132 21.088C128.093 22.04 128.574 23.552 128.574 25.624V32.022C128.574 34.0847 128.093 35.5967 127.132 36.558C126.18 37.5193 124.668 38 122.596 38H119.236ZM119.236 36.236H122.596C123.65 36.236 124.481 36.1053 125.088 35.844C125.704 35.5733 126.142 35.13 126.404 34.514C126.674 33.898 126.81 33.0673 126.81 32.022V25.624C126.81 24.5787 126.674 23.748 126.404 23.132C126.142 22.516 125.704 22.0773 125.088 21.816C124.481 21.5453 123.65 21.41 122.596 21.41H119.222C118.176 21.4007 117.346 21.5267 116.73 21.788C116.123 22.0493 115.684 22.488 115.414 23.104C115.152 23.72 115.022 24.5553 115.022 25.61V32.022C115.022 33.0673 115.152 33.898 115.414 34.514C115.684 35.13 116.128 35.5733 116.744 35.844C117.36 36.1053 118.19 36.236 119.236 36.236ZM139.032 38C136.97 38 135.458 37.5193 134.496 36.558C133.535 35.5967 133.054 34.0847 133.054 32.022V25.624C133.054 23.5427 133.535 22.026 134.496 21.074C135.458 20.1127 136.96 19.6367 139.004 19.646H142.392C144.128 19.646 145.43 20.0053 146.298 20.724C147.166 21.4333 147.652 22.5767 147.754 24.154C147.792 24.4433 147.736 24.6673 147.586 24.826C147.437 24.9847 147.213 25.064 146.914 25.064C146.373 25.064 146.065 24.77 145.99 24.182C145.916 23.118 145.603 22.39 145.052 21.998C144.511 21.606 143.624 21.41 142.392 21.41H139.004C137.959 21.4007 137.133 21.5267 136.526 21.788C135.92 22.0493 135.481 22.488 135.21 23.104C134.949 23.72 134.818 24.56 134.818 25.624V32.022C134.818 33.0673 134.949 33.898 135.21 34.514C135.481 35.13 135.924 35.5733 136.54 35.844C137.156 36.1053 137.987 36.236 139.032 36.236H142.392C143.326 36.236 144.058 36.1287 144.59 35.914C145.122 35.69 145.496 35.312 145.71 34.78C145.934 34.248 146.046 33.5153 146.046 32.582V30.972L143.274 30.944C142.686 30.944 142.392 30.65 142.392 30.062C142.392 29.474 142.686 29.18 143.274 29.18L146.928 29.208C147.516 29.208 147.81 29.502 147.81 30.09V32.582C147.81 34.4767 147.376 35.8533 146.508 36.712C145.65 37.5707 144.278 38 142.392 38H139.032ZM161.018 38C160.738 38 160.519 37.9253 160.36 37.776C160.211 37.6173 160.136 37.398 160.136 37.118V20.528C160.136 20.2387 160.211 20.0193 160.36 19.87C160.519 19.7207 160.738 19.646 161.018 19.646C161.307 19.646 161.527 19.7207 161.676 19.87C161.825 20.0193 161.9 20.2387 161.9 20.528V37.118C161.9 37.398 161.825 37.6173 161.676 37.776C161.527 37.9253 161.307 38 161.018 38ZM168.209 38C167.621 38 167.327 37.706 167.327 37.118V20.528C167.327 19.94 167.621 19.646 168.209 19.646C168.517 19.646 168.816 19.8187 169.105 20.164L180.767 35.158H180.347V20.528C180.347 19.94 180.641 19.646 181.229 19.646C181.817 19.646 182.111 19.94 182.111 20.528V37.118C182.111 37.706 181.817 38 181.229 38C180.912 38 180.613 37.8273 180.333 37.482L168.671 22.488H169.091V37.118C169.091 37.706 168.797 38 168.209 38Z" fill="#121212"/>
</svg>
