<svg width="738" height="276" viewBox="0 0 738 276" fill="none" xmlns="http://www.w3.org/2000/svg">
<g filter="url(#filter0_f_123_63)">
<rect x="67.5" y="67" width="394" height="71" fill="url(#paint0_linear_123_63)"/>
<rect x="67.5" y="138" width="603" height="71" fill="#723A85"/>
</g>
<path d="M76.3 115C74.7213 115 73.932 114.211 73.932 112.632V74.68C73.932 73.1013 74.7213 72.312 76.3 72.312H91.276C95.0947 72.312 98.0067 73.3253 100.012 75.352C102.017 77.3573 103.02 80.2693 103.02 84.088V86.008C103.02 89.8267 102.017 92.7387 100.012 94.744C98.0067 96.7493 95.0947 97.752 91.276 97.752H78.636V112.632C78.636 114.211 77.8573 115 76.3 115ZM78.636 93.048H91.276C93.7933 93.048 95.596 92.504 96.684 91.416C97.772 90.328 98.316 88.5253 98.316 86.008V84.088C98.316 81.5707 97.772 79.768 96.684 78.68C95.596 77.5707 93.7933 77.016 91.276 77.016H78.636V93.048ZM114.425 115C112.846 115 112.057 114.211 112.057 112.632V74.68C112.057 73.1013 112.846 72.312 114.425 72.312C115.982 72.312 116.761 73.1013 116.761 74.68V110.296H135.065C136.644 110.296 137.433 111.075 137.433 112.632C137.433 114.211 136.644 115 135.065 115H114.425ZM143.375 114.776C141.882 114.179 141.434 113.144 142.031 111.672L157.487 74.168C158.02 72.9307 158.895 72.312 160.111 72.312H160.271C161.487 72.376 162.319 72.9947 162.767 74.168L178.383 111.672C178.98 113.144 178.554 114.179 177.103 114.776C175.631 115.352 174.607 114.925 174.031 113.496L170.287 104.536H150.031L146.415 113.496C145.818 114.947 144.804 115.373 143.375 114.776ZM151.887 99.832H168.367L160.015 79.768L151.887 99.832ZM196.374 115C194.817 115 194.038 114.211 194.038 112.632V99.192L179.478 76.056C178.689 74.7333 178.934 73.6347 180.214 72.76C181.558 71.9493 182.646 72.1947 183.478 73.496L196.374 94.136L209.782 73.496C210.187 72.8773 210.667 72.5147 211.222 72.408C211.777 72.28 212.363 72.4293 212.982 72.856C214.347 73.688 214.593 74.7547 213.718 76.056L198.742 99.192V112.632C198.742 114.211 197.953 115 196.374 115ZM213.046 122.552C212.363 122.552 211.83 122.381 211.446 122.04C211.062 121.699 210.923 121.197 211.03 120.536L212.726 111C212.79 109.613 213.558 108.92 215.03 108.92H216.47C217.942 108.92 218.678 109.677 218.678 111.192V112.568C218.678 112.952 218.624 113.293 218.518 113.592C218.432 113.891 218.315 114.189 218.166 114.488L214.934 121.272C214.486 122.125 213.856 122.552 213.046 122.552ZM251.363 115C249.784 115 248.995 114.211 248.995 112.632V74.68C248.995 73.1013 249.784 72.312 251.363 72.312C252.92 72.312 253.699 73.1013 253.699 74.68V110.296H272.003C273.581 110.296 274.371 111.075 274.371 112.632C274.371 114.211 273.581 115 272.003 115H251.363ZM285.113 115C283.534 115 282.745 114.211 282.745 112.632V74.68C282.745 73.1013 283.534 72.312 285.113 72.312H308.409C309.987 72.312 310.777 73.1013 310.777 74.68C310.777 76.2373 309.987 77.016 308.409 77.016H287.449V91.096H300.857C302.435 91.096 303.225 91.8747 303.225 93.432C303.225 95.0107 302.435 95.8 300.857 95.8H287.449V110.296H308.409C309.987 110.296 310.777 111.075 310.777 112.632C310.777 114.211 309.987 115 308.409 115H285.113ZM318 114.776C316.507 114.179 316.059 113.144 316.656 111.672L332.112 74.168C332.645 72.9307 333.52 72.312 334.736 72.312H334.896C336.112 72.376 336.944 72.9947 337.392 74.168L353.008 111.672C353.605 113.144 353.179 114.179 351.728 114.776C350.256 115.352 349.232 114.925 348.656 113.496L344.912 104.536H324.656L321.04 113.496C320.443 114.947 319.429 115.373 318 114.776ZM326.512 99.832H342.992L334.64 79.768L326.512 99.832ZM389.899 115.096C389.28 115.501 388.693 115.629 388.139 115.48C387.584 115.331 387.104 114.947 386.699 114.328L376.587 97.752H366.699V112.632C366.699 114.211 365.92 115 364.363 115C362.784 115 361.995 114.211 361.995 112.632V74.68C361.995 73.1013 362.784 72.312 364.363 72.312H379.339C383.157 72.312 386.069 73.3253 388.075 75.352C390.08 77.3573 391.083 80.2693 391.083 84.088V86.008C391.083 89.336 390.304 91.9813 388.747 93.944C387.211 95.9067 384.971 97.112 382.027 97.56L390.763 111.896C391.509 113.219 391.221 114.285 389.899 115.096ZM366.699 93.048H379.339C381.856 93.048 383.659 92.504 384.747 91.416C385.835 90.328 386.379 88.5253 386.379 86.008V84.088C386.379 81.5707 385.835 79.768 384.747 78.68C383.659 77.5707 381.856 77.016 379.339 77.016H366.699V93.048ZM403.675 115C402.096 115 401.307 114.211 401.307 112.632V74.68C401.307 73.1013 402.096 72.312 403.675 72.312C404.486 72.312 405.275 72.7813 406.043 73.72L432.219 107.416H431.067V74.68C431.067 73.1013 431.856 72.312 433.435 72.312C434.992 72.312 435.771 73.1013 435.771 74.68V112.632C435.771 114.211 434.992 115 433.435 115C432.582 115 431.792 114.531 431.067 113.592L404.859 79.896H406.011V112.632C406.011 114.211 405.232 115 403.675 115ZM71.5 190.776C70.0067 190.179 69.5587 189.144 70.156 187.672L85.612 150.168C86.1453 148.931 87.02 148.312 88.236 148.312H88.396C89.612 148.376 90.444 148.995 90.892 150.168L106.508 187.672C107.105 189.144 106.679 190.179 105.228 190.776C103.756 191.352 102.732 190.925 102.156 189.496L98.412 180.536H78.156L74.54 189.496C73.9427 190.947 72.9293 191.373 71.5 190.776ZM80.012 175.832H96.492L88.14 155.768L80.012 175.832ZM117.863 191C116.284 191 115.495 190.211 115.495 188.632V150.68C115.495 149.101 116.284 148.312 117.863 148.312C118.673 148.312 119.463 148.781 120.231 149.72L146.407 183.416H145.255V150.68C145.255 149.101 146.044 148.312 147.623 148.312C149.18 148.312 149.959 149.101 149.959 150.68V188.632C149.959 190.211 149.18 191 147.623 191C146.769 191 145.98 190.531 145.255 189.592L119.047 155.896H120.199V188.632C120.199 190.211 119.42 191 117.863 191ZM165.175 191C163.596 191 162.807 190.211 162.807 188.632V150.68C162.807 149.101 163.596 148.312 165.175 148.312H180.599C186.082 148.312 190.103 149.603 192.663 152.184C195.223 154.744 196.503 158.765 196.503 164.248V175.064C196.503 180.547 195.223 184.579 192.663 187.16C190.124 189.72 186.103 191 180.599 191H165.175ZM167.511 186.296H180.599C183.372 186.296 185.58 185.944 187.223 185.24C188.866 184.536 190.039 183.363 190.743 181.72C191.447 180.077 191.799 177.859 191.799 175.064V164.248C191.799 161.475 191.447 159.267 190.743 157.624C190.039 155.981 188.866 154.808 187.223 154.104C185.58 153.379 183.372 153.016 180.599 153.016H167.511V186.296ZM229.175 191C227.596 191 226.807 190.211 226.807 188.632V150.68C226.807 149.101 227.596 148.312 229.175 148.312H245.879C249.186 148.312 251.714 149.176 253.463 150.904C255.212 152.632 256.087 155.117 256.087 158.36V160.088C256.087 163.117 255.127 165.389 253.207 166.904C256.706 168.696 258.455 172.12 258.455 177.176V179.288C258.455 183.128 257.452 186.04 255.447 188.024C253.442 190.008 250.53 191 246.711 191H229.175ZM231.511 186.296H246.711C249.207 186.296 250.999 185.752 252.087 184.664C253.196 183.555 253.751 181.763 253.751 179.288V177.176C253.751 174.701 253.218 172.931 252.151 171.864C251.084 170.776 249.271 170.232 246.711 170.232H231.511V186.296ZM231.511 165.528H246.807C248.492 165.528 249.676 165.048 250.359 164.088C251.042 163.107 251.383 161.773 251.383 160.088V158.36C251.383 156.419 250.967 155.043 250.135 154.232C249.303 153.421 247.884 153.016 245.879 153.016H231.511V165.528ZM282.441 191C277.641 191 274.099 189.869 271.817 187.608C269.555 185.325 268.425 181.784 268.425 176.984V150.68C268.425 149.912 268.627 149.325 269.033 148.92C269.438 148.515 270.025 148.312 270.793 148.312C271.561 148.312 272.137 148.515 272.521 148.92C272.926 149.325 273.129 149.912 273.129 150.68V176.984C273.129 179.331 273.417 181.187 273.993 182.552C274.569 183.896 275.529 184.856 276.873 185.432C278.238 186.008 280.094 186.296 282.441 186.296H290.121C292.446 186.296 294.281 186.008 295.625 185.432C296.99 184.856 297.961 183.896 298.537 182.552C299.113 181.187 299.401 179.331 299.401 176.984V150.68C299.401 149.912 299.603 149.325 300.009 148.92C300.414 148.515 301.001 148.312 301.769 148.312C302.537 148.312 303.113 148.515 303.497 148.92C303.902 149.325 304.105 149.912 304.105 150.68V176.984C304.105 181.784 302.974 185.325 300.713 187.608C298.451 189.869 294.921 191 290.121 191H282.441ZM318.988 191C318.198 191 317.601 190.808 317.196 190.424C316.812 190.019 316.62 189.421 316.62 188.632V150.712C316.62 149.901 316.812 149.304 317.196 148.92C317.601 148.536 318.198 148.344 318.988 148.344C319.777 148.344 320.364 148.536 320.748 148.92C321.132 149.304 321.324 149.901 321.324 150.712V188.632C321.324 189.421 321.132 190.019 320.748 190.424C320.364 190.808 319.777 191 318.988 191ZM336.55 191C334.971 191 334.182 190.211 334.182 188.632V150.68C334.182 149.101 334.971 148.312 336.55 148.312C338.107 148.312 338.886 149.101 338.886 150.68V186.296H357.19C358.769 186.296 359.558 187.075 359.558 188.632C359.558 190.211 358.769 191 357.19 191H336.55ZM370.3 191C368.721 191 367.932 190.211 367.932 188.632V150.68C367.932 149.101 368.721 148.312 370.3 148.312H385.724C391.207 148.312 395.228 149.603 397.788 152.184C400.348 154.744 401.628 158.765 401.628 164.248V175.064C401.628 180.547 400.348 184.579 397.788 187.16C395.249 189.72 391.228 191 385.724 191H370.3ZM372.636 186.296H385.724C388.497 186.296 390.705 185.944 392.348 185.24C393.991 184.536 395.164 183.363 395.868 181.72C396.572 180.077 396.924 177.859 396.924 175.064V164.248C396.924 161.475 396.572 159.267 395.868 157.624C395.164 155.981 393.991 154.808 392.348 154.104C390.705 153.379 388.497 153.016 385.724 153.016H372.636V186.296ZM444.636 191C439.836 191 436.295 189.869 434.012 187.608C431.751 185.325 430.62 181.784 430.62 176.984V162.328C430.62 157.485 431.751 153.933 434.012 151.672C436.273 149.411 439.793 148.291 444.572 148.312H452.316C456.284 148.312 459.292 149.144 461.34 150.808C463.388 152.451 464.561 155.053 464.86 158.616C464.967 159.405 464.817 160.013 464.412 160.44C464.007 160.845 463.409 161.048 462.62 161.048C461.191 161.048 460.369 160.259 460.156 158.68C459.964 156.504 459.271 155.021 458.076 154.232C456.881 153.421 454.961 153.016 452.316 153.016H444.572C442.247 153.016 440.412 153.304 439.068 153.88C437.724 154.435 436.764 155.395 436.188 156.76C435.612 158.104 435.324 159.96 435.324 162.328V176.984C435.324 179.331 435.612 181.187 436.188 182.552C436.764 183.896 437.724 184.856 439.068 185.432C440.433 186.008 442.289 186.296 444.636 186.296H452.316C454.364 186.296 455.964 186.061 457.116 185.592C458.289 185.123 459.111 184.312 459.58 183.16C460.071 181.987 460.316 180.355 460.316 178.264V174.936L454.652 174.872C453.095 174.872 452.316 174.083 452.316 172.504C452.316 170.947 453.095 170.168 454.652 170.168L462.684 170.232C464.241 170.232 465.02 171.011 465.02 172.568V178.264C465.02 182.701 463.996 185.933 461.948 187.96C459.921 189.987 456.711 191 452.316 191H444.636ZM473.562 190.776C472.069 190.179 471.621 189.144 472.219 187.672L487.675 150.168C488.208 148.931 489.083 148.312 490.299 148.312H490.459C491.675 148.376 492.507 148.995 492.955 150.168L508.571 187.672C509.168 189.144 508.741 190.179 507.291 190.776C505.819 191.352 504.795 190.925 504.219 189.496L500.475 180.536H480.219L476.603 189.496C476.005 190.947 474.992 191.373 473.562 190.776ZM482.075 175.832H498.555L490.203 155.768L482.075 175.832ZM519.925 191C518.346 191 517.557 190.211 517.557 188.632V150.68C517.557 149.101 518.346 148.312 519.925 148.312C520.97 148.312 521.834 148.824 522.517 149.848L537.909 173.112L536.885 173.272L552.341 149.848C552.981 148.824 553.93 148.312 555.189 148.312C556.49 148.312 557.141 149.101 557.141 150.68V188.632C557.141 190.211 556.362 191 554.805 191C553.226 191 552.437 190.211 552.437 188.632V155.384L553.877 155.864L539.989 176.568C539.306 177.571 538.357 178.072 537.141 178.072C536.245 178.072 535.456 177.571 534.773 176.568L520.885 155.864L522.261 156.28V188.632C522.261 190.211 521.482 191 519.925 191ZM572.363 191C570.784 191 569.995 190.211 569.995 188.632V150.68C569.995 149.101 570.784 148.312 572.363 148.312H595.659C597.237 148.312 598.027 149.101 598.027 150.68C598.027 152.237 597.237 153.016 595.659 153.016H574.699V167.096H588.107C589.685 167.096 590.475 167.875 590.475 169.432C590.475 171.011 589.685 171.8 588.107 171.8H574.699V186.296H595.659C597.237 186.296 598.027 187.075 598.027 188.632C598.027 190.211 597.237 191 595.659 191H572.363ZM618.434 190.968C614.743 190.968 611.906 190.2 609.922 188.664C607.959 187.107 606.786 184.696 606.402 181.432C606.338 180.643 606.509 180.045 606.914 179.64C607.341 179.213 607.938 179 608.706 179C609.474 179 610.039 179.192 610.402 179.576C610.786 179.96 611.031 180.536 611.138 181.304C611.394 183.181 612.066 184.483 613.154 185.208C614.263 185.912 616.023 186.264 618.434 186.264H627.65C630.509 186.264 632.461 185.741 633.506 184.696C634.573 183.629 635.106 181.699 635.106 178.904C635.106 176.067 634.562 174.115 633.474 173.048C632.407 171.96 630.466 171.416 627.65 171.416H619.458C615.511 171.416 612.589 170.467 610.69 168.568C608.813 166.669 607.874 163.757 607.874 159.832C607.874 155.907 608.802 153.005 610.658 151.128C612.535 149.251 615.447 148.312 619.394 148.312H627.458C630.914 148.312 633.57 149.048 635.426 150.52C637.303 151.971 638.434 154.221 638.818 157.272C638.903 158.061 638.733 158.669 638.306 159.096C637.901 159.501 637.303 159.704 636.514 159.704C635.767 159.704 635.202 159.512 634.818 159.128C634.434 158.723 634.199 158.147 634.114 157.4C633.858 155.757 633.218 154.616 632.194 153.976C631.191 153.336 629.613 153.016 627.458 153.016H619.394C616.749 153.016 614.946 153.507 613.986 154.488C613.047 155.448 612.578 157.229 612.578 159.832C612.578 162.435 613.058 164.237 614.018 165.24C614.999 166.221 616.813 166.712 619.458 166.712H627.65C631.789 166.712 634.85 167.704 636.834 169.688C638.818 171.672 639.81 174.744 639.81 178.904C639.81 183.043 638.818 186.093 636.834 188.056C634.85 189.997 631.789 190.968 627.65 190.968H618.434Z" fill="white"/>
<defs>
<filter id="filter0_f_123_63" x="0.5" y="0" width="737" height="276" filterUnits="userSpaceOnUse" color-interpolation-filters="sRGB">
<feFlood flood-opacity="0" result="BackgroundImageFix"/>
<feBlend mode="normal" in="SourceGraphic" in2="BackgroundImageFix" result="shape"/>
<feGaussianBlur stdDeviation="33.5" result="effect1_foregroundBlur_123_63"/>
</filter>
<linearGradient id="paint0_linear_123_63" x1="264.5" y1="90" x2="264.5" y2="138" gradientUnits="userSpaceOnUse">
<stop stop-color="#9A51B3"/>
<stop offset="1" stop-color="#9A51B3" stop-opacity="0"/>
</linearGradient>
</defs>
</svg>
